<svg width="29" height="33" viewBox="0 0 29 33" fill="none" xmlns="http://www.w3.org/2000/svg">
<circle cx="14.5" cy="15.5" r="14.5" fill="black"/>
<path d="M15.6309 18.8691C15.6309 19.0514 15.599 19.2018 15.5352 19.3203C15.4805 19.4297 15.4167 19.5573 15.3438 19.7031C15.3255 19.694 15.3027 19.6895 15.2754 19.6895C15.2207 19.6895 15.1706 19.7031 15.125 19.7305C15.0794 19.7578 15.0339 19.7806 14.9883 19.7988C14.724 20.0905 14.4505 20.373 14.168 20.6465C13.8945 20.9199 13.5892 21.1615 13.252 21.3711C13.1608 21.4258 13.0697 21.4805 12.9785 21.5352C12.8874 21.5807 12.7917 21.6263 12.6914 21.6719C12.6549 21.6901 12.6185 21.7083 12.582 21.7266C12.5547 21.7357 12.5273 21.7493 12.5 21.7676C12.4362 21.804 12.3678 21.8633 12.2949 21.9453C12.2311 22.0273 12.1536 22.1094 12.0625 22.1914C11.9805 22.2826 11.8893 22.3555 11.7891 22.4102C11.6888 22.474 11.5794 22.5013 11.4609 22.4922C11.388 22.5378 11.3242 22.597 11.2695 22.6699C11.2148 22.7428 11.151 22.8158 11.0781 22.8887C10.6862 23.0254 10.3262 23.2031 9.99805 23.4219C9.67904 23.6497 9.34635 23.8685 9 24.0781C8.79036 24.2148 8.58073 24.3242 8.37109 24.4062C8.32552 24.4245 8.27083 24.4382 8.20703 24.4473C8.15234 24.4564 8.0931 24.4701 8.0293 24.4883C7.72852 24.5612 7.42318 24.6204 7.11328 24.666C6.8125 24.7116 6.50716 24.7344 6.19727 24.7344C5.81445 24.7344 5.44531 24.6888 5.08984 24.5977C5.08984 24.5703 5.08073 24.5521 5.0625 24.543C5.04427 24.5339 5.02148 24.5247 4.99414 24.5156C4.97591 24.5065 4.95768 24.4928 4.93945 24.4746C4.92122 24.4655 4.92122 24.4427 4.93945 24.4062C4.73893 24.388 4.5612 24.3379 4.40625 24.2559C4.26042 24.1738 4.16471 24.028 4.11914 23.8184C4.0918 23.8366 4.06901 23.8594 4.05078 23.8867C4.03255 23.9141 4.00065 23.9232 3.95508 23.9141C3.82747 23.7318 3.6862 23.5632 3.53125 23.4082C3.3763 23.2533 3.26237 23.0664 3.18945 22.8477C3.17122 22.8021 3.15755 22.7565 3.14844 22.7109C3.14844 22.6745 3.14388 22.6335 3.13477 22.5879C3.08919 22.4603 3.00716 22.3965 2.88867 22.3965C2.9069 22.36 2.91602 22.3145 2.91602 22.2598C2.91602 22.2324 2.91146 22.2051 2.90234 22.1777C2.90234 22.1504 2.90234 22.123 2.90234 22.0957C2.90234 22.0501 2.91602 22.0046 2.94336 21.959C2.85221 21.7493 2.78841 21.5443 2.75195 21.3438C2.71549 21.1341 2.69727 20.9199 2.69727 20.7012C2.69727 20.4186 2.71094 20.1406 2.73828 19.8672C2.76562 19.5846 2.7793 19.3021 2.7793 19.0195C2.83398 18.9102 2.875 18.7826 2.90234 18.6367C2.9388 18.4909 2.99805 18.3724 3.08008 18.2812C3.07096 18.2266 3.05273 18.1992 3.02539 18.1992C2.99805 18.1901 2.98438 18.1628 2.98438 18.1172C2.98438 17.9531 3.01628 17.7754 3.08008 17.584C3.14388 17.3926 3.17578 17.1966 3.17578 16.9961C3.25781 16.9505 3.30794 16.8822 3.32617 16.791C3.35352 16.6999 3.40365 16.627 3.47656 16.5723V16.5039C3.47656 16.3672 3.49023 16.2305 3.51758 16.0938C3.55404 15.957 3.58594 15.8249 3.61328 15.6973C3.64974 15.5605 3.67708 15.4284 3.69531 15.3008C3.72266 15.1641 3.73177 15.0319 3.72266 14.9043C3.74089 14.877 3.76367 14.8268 3.79102 14.7539C3.82747 14.6719 3.85938 14.5898 3.88672 14.5078C3.92318 14.4167 3.95052 14.3301 3.96875 14.248C3.99609 14.166 4.00977 14.1068 4.00977 14.0703C4.00977 14.0156 4.00065 13.9655 3.98242 13.9199C3.96419 13.8743 3.95508 13.8242 3.95508 13.7695C3.95508 13.724 3.96875 13.6602 3.99609 13.5781C4.02344 13.487 4.04622 13.4141 4.06445 13.3594C4.10091 13.2044 4.13281 13.0449 4.16016 12.8809C4.19661 12.7077 4.22852 12.5436 4.25586 12.3887C4.33789 11.8874 4.39714 11.3861 4.43359 10.8848C4.47005 10.3743 4.49284 9.86393 4.50195 9.35352C4.62956 9.2806 4.76172 9.21224 4.89844 9.14844C5.04427 9.08464 5.19466 9.05273 5.34961 9.05273C5.39518 9.05273 5.44076 9.05729 5.48633 9.06641C5.5319 9.07552 5.57747 9.08919 5.62305 9.10742C5.66862 9.28971 5.74154 9.43555 5.8418 9.54492C5.94206 9.6543 6.0332 9.78646 6.11523 9.94141C6.06055 10.0872 6.02409 10.2376 6.00586 10.3926L5.96484 10.8574C5.95573 11.0124 5.9375 11.1673 5.91016 11.3223C5.88281 11.4681 5.83724 11.6094 5.77344 11.7461C5.79167 11.7917 5.80078 11.8372 5.80078 11.8828V12.0195C5.80078 12.1471 5.78711 12.2702 5.75977 12.3887C5.74154 12.5072 5.71875 12.6302 5.69141 12.7578C5.66406 12.8763 5.64128 12.9948 5.62305 13.1133C5.60482 13.2318 5.60482 13.3503 5.62305 13.4688C5.5957 13.5143 5.56836 13.5508 5.54102 13.5781C5.51367 13.5964 5.49544 13.6283 5.48633 13.6738L5.45898 13.9336C5.44076 14.0339 5.42253 14.1341 5.4043 14.2344C5.39518 14.3255 5.38151 14.4212 5.36328 14.5215C5.29948 14.7949 5.22656 15.0684 5.14453 15.3418C5.07161 15.6152 5.03516 15.8978 5.03516 16.1895V16.2715C4.95312 16.3991 4.88932 16.5586 4.84375 16.75C4.79818 16.9323 4.78451 17.1009 4.80273 17.2559C4.70247 17.5202 4.60677 17.7799 4.51562 18.0352C4.42448 18.2904 4.37891 18.5547 4.37891 18.8281C4.37891 18.8737 4.37891 18.9238 4.37891 18.9785C4.38802 19.0241 4.39714 19.0697 4.40625 19.1152C4.33333 19.2975 4.28776 19.4844 4.26953 19.6758C4.2513 19.8581 4.24219 20.0404 4.24219 20.2227C4.24219 20.3503 4.24674 20.5007 4.25586 20.6738C4.27409 20.8379 4.29688 21.0111 4.32422 21.1934C4.36068 21.3665 4.40169 21.5352 4.44727 21.6992C4.49284 21.8633 4.54297 21.9954 4.59766 22.0957C4.80729 22.4329 5.08073 22.6973 5.41797 22.8887C5.76432 23.0892 6.12891 23.2168 6.51172 23.2715C6.66667 23.2168 6.78971 23.1849 6.88086 23.1758C6.98112 23.1667 7.11784 23.1667 7.29102 23.1758C7.43685 23.1029 7.58268 23.0482 7.72852 23.0117C7.88346 22.9753 8.03841 22.9342 8.19336 22.8887C8.23893 22.8704 8.28451 22.8522 8.33008 22.834C8.38477 22.8158 8.43034 22.7975 8.4668 22.7793C8.51237 22.7611 8.5625 22.7201 8.61719 22.6562C8.67188 22.5924 8.72201 22.5378 8.76758 22.4922C8.95898 22.4375 9.14128 22.36 9.31445 22.2598C9.48763 22.1686 9.65625 22.0729 9.82031 21.9727L10.3262 21.6719C10.4993 21.5716 10.6816 21.485 10.873 21.4121C10.946 21.3848 10.987 21.3483 10.9961 21.3027C11.0143 21.248 11.0417 21.1842 11.0781 21.1113C11.0964 21.1296 11.1237 21.1387 11.1602 21.1387C11.2695 21.1387 11.347 21.1068 11.3926 21.043C11.4382 20.9701 11.4928 20.8971 11.5566 20.8242C11.6751 20.806 11.7891 20.7741 11.8984 20.7285C12.0078 20.6738 12.0898 20.5918 12.1445 20.4824C12.3724 20.4368 12.5729 20.3548 12.7461 20.2363C12.9193 20.1178 13.0879 19.9902 13.252 19.8535C13.416 19.7077 13.5801 19.571 13.7441 19.4434C13.9082 19.3066 14.0951 19.1973 14.3047 19.1152C14.332 19.0697 14.3503 19.0286 14.3594 18.9922C14.3685 18.9557 14.3822 18.9147 14.4004 18.8691C14.5553 18.8509 14.6784 18.8099 14.7695 18.7461C14.8607 18.6732 14.9655 18.6003 15.084 18.5273C15.3392 18.5547 15.5215 18.6686 15.6309 18.8691ZM26.6094 8.9707C26.5365 9.01628 26.459 9.04362 26.377 9.05273C26.2949 9.06185 26.2083 9.07552 26.1172 9.09375C26.0352 9.10286 25.9577 9.12109 25.8848 9.14844C25.8118 9.17578 25.7572 9.22591 25.7207 9.29883C25.6296 9.20768 25.5293 9.13021 25.4199 9.06641C25.3105 9.0026 25.2012 8.93424 25.0918 8.86133C25.0007 8.88867 24.9095 8.92513 24.8184 8.9707C24.7272 9.01628 24.6361 9.03906 24.5449 9.03906C24.4811 9.03906 24.4173 9.01628 24.3535 8.9707C24.2806 9.02539 24.194 9.07096 24.0938 9.10742C24.0026 9.13477 23.9023 9.16211 23.793 9.18945C23.6927 9.2168 23.597 9.25326 23.5059 9.29883C23.4238 9.3444 23.3646 9.41276 23.3281 9.50391C23.3099 9.45833 23.2643 9.44466 23.1914 9.46289C23.1276 9.48112 23.0911 9.45833 23.082 9.39453C22.7904 9.49479 22.4941 9.58138 22.1934 9.6543C21.8926 9.72721 21.5918 9.80469 21.291 9.88672C20.9902 9.96875 20.694 10.0599 20.4023 10.1602C20.1107 10.2604 19.8281 10.3835 19.5547 10.5293C19.5456 10.5384 19.541 10.5521 19.541 10.5703C19.541 10.6615 19.5547 10.748 19.582 10.8301C19.6094 10.9121 19.6322 10.9896 19.6504 11.0625C19.4863 11.6185 19.377 12.1836 19.3223 12.7578C19.2676 13.332 19.1947 13.8971 19.1035 14.4531V14.5078C19.1035 14.5534 19.1217 14.5898 19.1582 14.6172C19.1947 14.6354 19.2129 14.6719 19.2129 14.7266L19.1992 14.7539C19.1536 14.7812 19.1217 14.8223 19.1035 14.877C19.0853 14.9225 19.0762 14.9727 19.0762 15.0273C19.0762 15.0638 19.0853 15.1185 19.1035 15.1914C18.9486 15.7109 18.8438 16.2396 18.7891 16.7773C18.7435 17.3151 18.6842 17.8529 18.6113 18.3906L18.4883 19.293C18.4701 19.3477 18.4518 19.4023 18.4336 19.457C18.4245 19.5026 18.4199 19.5527 18.4199 19.6074C18.4199 19.8991 18.4382 20.1862 18.4746 20.4688C18.5202 20.7422 18.5339 21.0247 18.5156 21.3164C18.5977 21.444 18.6387 21.5671 18.6387 21.6855C18.6387 21.7311 18.6341 21.7767 18.625 21.8223C18.625 21.8678 18.6204 21.9134 18.6113 21.959C18.7298 22.0775 18.8665 22.1595 19.0215 22.2051C19.1855 22.2598 19.3314 22.3418 19.459 22.4512V22.5059C19.459 22.597 19.4453 22.6836 19.418 22.7656C19.3906 22.8568 19.3678 22.9479 19.3496 23.0391C19.3314 23.112 19.3086 23.2168 19.2812 23.3535C19.263 23.4902 19.2357 23.5814 19.1992 23.627C19.1536 23.6908 19.0853 23.7454 18.9941 23.791C18.9121 23.8457 18.8301 23.873 18.748 23.873C18.7207 23.873 18.6797 23.8594 18.625 23.832C18.5794 23.8047 18.543 23.7819 18.5156 23.7637C18.4701 23.7637 18.4108 23.7865 18.3379 23.832C18.265 23.8776 18.1921 23.9004 18.1191 23.9004C18.0827 23.9004 18.0508 23.8958 18.0234 23.8867C17.9961 23.8867 17.9642 23.8776 17.9277 23.8594C17.8913 23.7682 17.8366 23.6862 17.7637 23.6133C17.6999 23.5495 17.6224 23.4857 17.5312 23.4219C17.5404 23.2943 17.5176 23.1986 17.4629 23.1348C17.4082 23.071 17.3535 22.9889 17.2988 22.8887C17.2806 22.7611 17.2624 22.6152 17.2441 22.4512C17.235 22.2871 17.1667 22.1686 17.0391 22.0957C17.0846 22.0319 17.1074 21.9453 17.1074 21.8359C17.1074 21.7904 17.0983 21.7402 17.0801 21.6855C17.071 21.6309 17.0436 21.5898 16.998 21.5625V21.5352C16.9889 21.4896 17.0026 21.4577 17.0391 21.4395C17.0846 21.4121 17.1074 21.3757 17.1074 21.3301V21.2754C17.0436 20.9837 17.0117 20.6784 17.0117 20.3594C17.0117 20.0586 17.0208 19.7624 17.0391 19.4707C17.0573 19.1699 17.0573 18.8691 17.0391 18.5684C17.0938 18.5228 17.1348 18.4499 17.1621 18.3496C17.1986 18.2493 17.2259 18.14 17.2441 18.0215C17.2624 17.903 17.2715 17.7891 17.2715 17.6797C17.2806 17.5612 17.2897 17.4655 17.2988 17.3926C17.3444 16.873 17.4173 16.3626 17.5176 15.8613C17.6178 15.3509 17.6771 14.8314 17.6953 14.3027C17.7409 14.2298 17.7682 14.1341 17.7773 14.0156C17.7865 13.8971 17.791 13.7741 17.791 13.6465C17.791 13.5098 17.8001 13.3776 17.8184 13.25C17.8366 13.1224 17.873 13.013 17.9277 12.9219C17.9277 12.6667 17.9505 12.4115 17.9961 12.1562C18.0417 11.8919 18.0645 11.6276 18.0645 11.3633C18.0645 11.2357 18.0508 11.1035 18.0234 10.9668C17.9323 10.9303 17.8503 10.9121 17.7773 10.9121C17.6771 10.9121 17.5723 10.9349 17.4629 10.9805C17.3626 11.0169 17.2897 11.0762 17.2441 11.1582C17.0436 11.1673 16.8477 11.1992 16.6562 11.2539C16.4648 11.3086 16.2734 11.3359 16.082 11.3359H15.9453C15.9089 11.3359 15.8678 11.3314 15.8223 11.3223C15.7585 11.3496 15.6901 11.3724 15.6172 11.3906C15.5534 11.4089 15.526 11.4635 15.5352 11.5547C15.2526 11.582 14.9746 11.6413 14.7012 11.7324C14.4368 11.8236 14.1725 11.9238 13.9082 12.0332C13.6439 12.1335 13.3796 12.2292 13.1152 12.3203C12.8418 12.4115 12.5638 12.4707 12.2812 12.498C12.181 12.5436 12.1172 12.6393 12.0898 12.7852C11.8893 12.7669 11.7207 12.7168 11.584 12.6348C11.4473 12.5527 11.2878 12.4753 11.1055 12.4023C11.0508 12.2109 11.0234 12.0286 11.0234 11.8555C11.0234 11.6276 11.069 11.4089 11.1602 11.1992C11.2513 10.9896 11.3971 10.8346 11.5977 10.7344C11.6432 10.7435 11.6842 10.7526 11.7207 10.7617C11.7572 10.7617 11.7982 10.7617 11.8438 10.7617C11.9896 10.7617 12.1354 10.7344 12.2812 10.6797C12.4271 10.625 12.5775 10.5977 12.7324 10.5977C12.778 10.5977 12.8281 10.6113 12.8828 10.6387C12.9466 10.6022 13.0286 10.5749 13.1289 10.5566C13.2201 10.5293 13.3066 10.5065 13.3887 10.4883C13.4798 10.4609 13.5618 10.4245 13.6348 10.3789C13.7077 10.3333 13.7533 10.2695 13.7715 10.1875C13.8171 10.224 13.8672 10.2467 13.9219 10.2559C13.9766 10.265 14.0312 10.2695 14.0859 10.2695C14.2044 10.2695 14.3275 10.2467 14.4551 10.2012C14.5827 10.1556 14.6829 10.0827 14.7559 9.98242C14.8197 10.0553 14.9108 10.0918 15.0293 10.0918C15.1569 10.0918 15.2799 10.0599 15.3984 9.99609C15.526 9.92318 15.6491 9.88672 15.7676 9.88672C15.8587 9.88672 15.9271 9.91862 15.9727 9.98242C16.0729 9.90039 16.1914 9.83659 16.3281 9.79102C16.4648 9.74544 16.6016 9.70443 16.7383 9.66797C16.8841 9.63151 17.0163 9.59049 17.1348 9.54492C17.2624 9.49935 17.3626 9.43555 17.4355 9.35352C17.4811 9.36263 17.554 9.36719 17.6543 9.36719C17.8092 9.36719 17.9551 9.34896 18.0918 9.3125C18.2376 9.26693 18.3835 9.22591 18.5293 9.18945L18.8164 9.16211C18.8893 9.15299 18.9531 9.13021 19.0078 9.09375C19.0716 9.05729 19.1354 9.02539 19.1992 8.99805C19.263 8.9707 19.3268 8.94792 19.3906 8.92969C19.4635 8.91146 19.5501 8.9069 19.6504 8.91602C19.8691 8.79753 20.1016 8.70638 20.3477 8.64258C20.5938 8.57878 20.8444 8.52409 21.0996 8.47852C21.3548 8.42383 21.6055 8.36458 21.8516 8.30078C22.0977 8.22786 22.3301 8.12305 22.5488 7.98633H22.5898C22.7721 7.98633 22.9499 7.95443 23.123 7.89062C23.3053 7.82682 23.474 7.74023 23.6289 7.63086C23.6562 7.63997 23.6836 7.64453 23.7109 7.64453H23.8066C24.0618 7.64453 24.3079 7.60807 24.5449 7.53516C24.791 7.46224 25.0462 7.42578 25.3105 7.42578C25.4655 7.42578 25.5885 7.44857 25.6797 7.49414C25.7708 7.5306 25.8529 7.58073 25.9258 7.64453C25.9987 7.69922 26.0762 7.75391 26.1582 7.80859C26.2402 7.86328 26.3451 7.9043 26.4727 7.93164C26.5547 8.08659 26.5957 8.25521 26.5957 8.4375C26.5957 8.61068 26.6003 8.78841 26.6094 8.9707Z" fill="white"/>
</svg>
